<mxfile host="65bd71144e" modified="2021-02-07T19:38:23.743Z" agent="5.0 (Windows NT 10.0; Win64; x64) AppleWebKit/537.36 (KHTML, like Gecko) Code/1.53.0 Chrome/87.0.4280.141 Electron/11.2.1 Safari/537.36" version="13.10.0" etag="a0UhSzKqZpGyKjd1HZdC" type="embed">
    <diagram id="96iW01J79K3crN-nY3J0" name="Page-1">
        <mxGraphModel dx="1081" dy="790" grid="1" gridSize="10" guides="1" tooltips="1" connect="1" arrows="1" fold="1" page="1" pageScale="1" pageWidth="1600" pageHeight="900" math="0" shadow="0">
            <root>
                <mxCell id="0"/>
                <mxCell id="1" parent="0"/>
                <mxCell id="46" value="Map" style="rounded=1;whiteSpace=wrap;html=1;sketch=0;labelPosition=center;verticalLabelPosition=top;align=center;verticalAlign=bottom;" vertex="1" parent="1">
                    <mxGeometry x="530" y="230" width="760" height="420" as="geometry"/>
                </mxCell>
                <mxCell id="45" value="Route Navigation" style="rounded=1;whiteSpace=wrap;html=1;sketch=0;spacing=2;labelPosition=center;verticalLabelPosition=top;align=center;verticalAlign=bottom;" vertex="1" parent="1">
                    <mxGeometry x="990" y="260" width="290" height="120" as="geometry"/>
                </mxCell>
                <mxCell id="42" value="Route Selection" style="rounded=1;whiteSpace=wrap;html=1;sketch=0;labelPosition=center;verticalLabelPosition=top;align=center;verticalAlign=bottom;" vertex="1" parent="1">
                    <mxGeometry x="540" y="260" width="310" height="140" as="geometry"/>
                </mxCell>
                <mxCell id="23" style="edgeStyle=orthogonalEdgeStyle;curved=0;rounded=1;sketch=0;orthogonalLoop=1;jettySize=auto;html=1;exitX=0.5;exitY=1;exitDx=0;exitDy=0;" edge="1" parent="1" source="16" target="19">
                    <mxGeometry relative="1" as="geometry"/>
                </mxCell>
                <mxCell id="16" value="Mapbox" style="whiteSpace=wrap;html=1;align=center;rounded=0;sketch=0;" vertex="1" parent="1">
                    <mxGeometry x="870" y="270" width="100" height="40" as="geometry"/>
                </mxCell>
                <mxCell id="29" style="edgeStyle=orthogonalEdgeStyle;curved=0;rounded=1;sketch=0;orthogonalLoop=1;jettySize=auto;html=1;entryX=0.5;entryY=0;entryDx=0;entryDy=0;" edge="1" parent="1" source="17" target="28">
                    <mxGeometry relative="1" as="geometry"/>
                </mxCell>
                <mxCell id="33" style="edgeStyle=orthogonalEdgeStyle;curved=0;rounded=1;sketch=0;orthogonalLoop=1;jettySize=auto;html=1;entryX=1;entryY=0.5;entryDx=0;entryDy=0;" edge="1" parent="1" source="17" target="30">
                    <mxGeometry relative="1" as="geometry"/>
                </mxCell>
                <mxCell id="17" value="RouteSelection" style="whiteSpace=wrap;html=1;align=center;rounded=0;sketch=0;" vertex="1" parent="1">
                    <mxGeometry x="740" y="270" width="100" height="40" as="geometry"/>
                </mxCell>
                <mxCell id="24" style="edgeStyle=orthogonalEdgeStyle;curved=0;rounded=1;sketch=0;orthogonalLoop=1;jettySize=auto;html=1;exitX=0.5;exitY=1;exitDx=0;exitDy=0;entryX=1;entryY=0.5;entryDx=0;entryDy=0;" edge="1" parent="1" source="18" target="19">
                    <mxGeometry relative="1" as="geometry"/>
                </mxCell>
                <mxCell id="35" style="edgeStyle=orthogonalEdgeStyle;curved=0;rounded=1;sketch=0;orthogonalLoop=1;jettySize=auto;html=1;exitX=1;exitY=0.5;exitDx=0;exitDy=0;entryX=0;entryY=0.5;entryDx=0;entryDy=0;" edge="1" parent="1" source="18" target="34">
                    <mxGeometry relative="1" as="geometry"/>
                </mxCell>
                <mxCell id="44" style="edgeStyle=orthogonalEdgeStyle;curved=0;rounded=1;sketch=0;orthogonalLoop=1;jettySize=auto;html=1;entryX=0;entryY=0.5;entryDx=0;entryDy=0;" edge="1" parent="1" source="18" target="43">
                    <mxGeometry relative="1" as="geometry"/>
                </mxCell>
                <mxCell id="18" value="RouteNavigation" style="whiteSpace=wrap;html=1;align=center;rounded=0;sketch=0;" vertex="1" parent="1">
                    <mxGeometry x="1000" y="270" width="100" height="40" as="geometry"/>
                </mxCell>
                <mxCell id="22" style="edgeStyle=orthogonalEdgeStyle;curved=0;rounded=1;sketch=0;orthogonalLoop=1;jettySize=auto;html=1;exitX=0.5;exitY=1;exitDx=0;exitDy=0;entryX=0;entryY=0.5;entryDx=0;entryDy=0;" edge="1" parent="1" source="17" target="19">
                    <mxGeometry relative="1" as="geometry"/>
                </mxCell>
                <mxCell id="19" value="RouteManager" style="whiteSpace=wrap;html=1;align=center;rounded=0;sketch=0;" vertex="1" parent="1">
                    <mxGeometry x="870" y="350" width="100" height="40" as="geometry"/>
                </mxCell>
                <mxCell id="21" style="edgeStyle=orthogonalEdgeStyle;curved=0;rounded=1;sketch=0;orthogonalLoop=1;jettySize=auto;html=1;" edge="1" parent="1" source="20">
                    <mxGeometry relative="1" as="geometry">
                        <mxPoint x="920" y="392" as="targetPoint"/>
                    </mxGeometry>
                </mxCell>
                <mxCell id="20" value="Route" style="ellipse;whiteSpace=wrap;html=1;align=center;rounded=0;sketch=0;" vertex="1" parent="1">
                    <mxGeometry x="870" y="430" width="100" height="40" as="geometry"/>
                </mxCell>
                <mxCell id="28" value="SearchBar" style="whiteSpace=wrap;html=1;align=center;rounded=0;sketch=0;" vertex="1" parent="1">
                    <mxGeometry x="650" y="350" width="100" height="40" as="geometry"/>
                </mxCell>
                <mxCell id="30" value="RouteSelectionBottomBar" style="whiteSpace=wrap;html=1;align=center;rounded=0;sketch=0;" vertex="1" parent="1">
                    <mxGeometry x="550" y="270" width="140" height="40" as="geometry"/>
                </mxCell>
                <mxCell id="34" value="NavigationBottomBar" style="whiteSpace=wrap;html=1;align=center;rounded=0;sketch=0;" vertex="1" parent="1">
                    <mxGeometry x="1150" y="270" width="120" height="40" as="geometry"/>
                </mxCell>
                <mxCell id="37" style="edgeStyle=orthogonalEdgeStyle;curved=0;rounded=1;sketch=0;orthogonalLoop=1;jettySize=auto;html=1;entryX=0.5;entryY=1;entryDx=0;entryDy=0;" edge="1" parent="1" source="36" target="20">
                    <mxGeometry relative="1" as="geometry"/>
                </mxCell>
                <mxCell id="40" style="edgeStyle=orthogonalEdgeStyle;curved=0;rounded=1;sketch=0;orthogonalLoop=1;jettySize=auto;html=1;entryX=0.5;entryY=0;entryDx=0;entryDy=0;" edge="1" parent="1" source="36" target="38">
                    <mxGeometry relative="1" as="geometry"/>
                </mxCell>
                <mxCell id="41" style="edgeStyle=orthogonalEdgeStyle;curved=0;rounded=1;sketch=0;orthogonalLoop=1;jettySize=auto;html=1;entryX=0.5;entryY=0;entryDx=0;entryDy=0;" edge="1" parent="1" source="36" target="39">
                    <mxGeometry relative="1" as="geometry"/>
                </mxCell>
                <mxCell id="36" value="RouteParser" style="whiteSpace=wrap;html=1;align=center;rounded=0;sketch=0;" vertex="1" parent="1">
                    <mxGeometry x="870" y="510" width="100" height="40" as="geometry"/>
                </mxCell>
                <mxCell id="38" value="RtxParser" style="whiteSpace=wrap;html=1;align=center;rounded=0;sketch=0;" vertex="1" parent="1">
                    <mxGeometry x="780" y="600" width="100" height="40" as="geometry"/>
                </mxCell>
                <mxCell id="39" value="GpxParser" style="whiteSpace=wrap;html=1;align=center;rounded=0;sketch=0;" vertex="1" parent="1">
                    <mxGeometry x="960" y="600" width="100" height="40" as="geometry"/>
                </mxCell>
                <mxCell id="43" value="NavigationTopBar" style="whiteSpace=wrap;html=1;align=center;rounded=0;sketch=0;" vertex="1" parent="1">
                    <mxGeometry x="1150" y="330" width="120" height="40" as="geometry"/>
                </mxCell>
                <mxCell id="48" value="Attribute" style="ellipse;whiteSpace=wrap;html=1;align=center;rounded=0;sketch=0;" vertex="1" parent="1">
                    <mxGeometry x="860" y="130" width="100" height="40" as="geometry"/>
                </mxCell>
            </root>
        </mxGraphModel>
    </diagram>
</mxfile>